<svg width="30" height="30" viewBox="0 0 30 30" fill="none" xmlns="http://www.w3.org/2000/svg">
<path d="M29.509 9.68198H4.8384V9.16438L29.5913 4.89297C29.6547 4.88301 29.7156 4.86052 29.7702 4.8268C29.8249 4.79308 29.8723 4.74881 29.9097 4.69657C29.947 4.64434 29.9736 4.58519 29.9879 4.52256C30.0022 4.45994 30.0038 4.3951 29.9928 4.33184L29.3059 0.40872C29.2959 0.345269 29.2734 0.284438 29.2397 0.229774C29.206 0.175109 29.1617 0.127708 29.1095 0.0903335C29.0572 0.0529593 28.9981 0.0263613 28.9355 0.012091C28.8728 -0.00217923 28.808 -0.003836 28.7447 0.00721745L0.402525 4.90265C0.276943 4.92797 0.165043 4.99855 0.0880952 5.10098C0.0157897 5.20716 -0.0135948 5.3368 0.00585978 5.46378L0.102607 6.01041C0.0390612 6.09221 0.00345268 6.19225 0.0010224 6.29581V29.5152C0.0010224 29.6435 0.0519875 29.7666 0.142706 29.8573C0.233424 29.948 0.356465 29.999 0.48476 29.999H29.509C29.6373 29.999 29.7604 29.948 29.8511 29.8573C29.9418 29.7666 29.9928 29.6435 29.9928 29.5152V10.1657C29.9928 10.0374 29.9418 9.91438 29.8511 9.82366C29.7604 9.73294 29.6373 9.68198 29.509 9.68198ZM0.968499 6.77955H3.87093V11.6169H0.968499V6.77955ZM1.73764 12.5844L0.968499 13.3535V12.5844H1.73764ZM0.968499 16.4543H29.0253V17.4218H0.968499V16.4543ZM0.968499 15.4868V14.5194H29.0253V15.4868H0.968499ZM21.4838 13.5519L24.3863 10.6495H27.8595L24.9571 13.5519H21.4838ZM20.1197 13.5519H16.6464L19.5489 10.6495H23.0221L20.1197 13.5519ZM15.2823 13.5519H11.8091L14.7115 10.6495H18.1847L15.2823 13.5519ZM10.4449 13.5519H6.97169L9.87412 10.6495H13.3474L10.4449 13.5519ZM26.3212 13.5519L29.0253 10.8478V13.5519H26.3212ZM8.50997 10.6495L5.60755 13.5519H2.13431L3.10178 12.5844H4.35466C4.48296 12.5844 4.606 12.5334 4.69672 12.4427C4.78744 12.352 4.8384 12.229 4.8384 12.1007V10.6495H8.50997ZM4.5143 5.84594L5.03674 5.08647L8.44709 4.49631L6.0284 7.97438L4.8384 8.18239V6.29581C4.83701 6.19664 4.80518 6.1003 4.7472 6.01983C4.68923 5.93936 4.60792 5.87865 4.5143 5.84594ZM20.2503 5.52183L16.8641 6.10715L19.2828 2.62908L22.6061 2.05827L20.2503 5.52183ZM23.917 1.83091L27.3032 1.24075L24.9571 4.70915L21.5709 5.29447L23.917 1.83091ZM15.5339 6.33451L12.1477 6.92467L14.5664 3.45143L17.9525 2.86127L15.5339 6.33451ZM10.7884 7.15687L7.40221 7.74219L9.8209 4.26895L13.2313 3.67879L10.7884 7.15687ZM26.297 4.48179L28.4738 1.26494L28.9576 4.02224L26.297 4.48179ZM3.70162 5.32834L3.35816 5.81207H1.05073V5.77821L3.70162 5.32834ZM0.968499 29.0315V18.3893H29.0253V29.0315H0.968499Z" fill="#cf00dd"/>
</svg>
